<svg
  xmlns="http://www.w3.org/2000/svg"
  viewBox="0 0 24 24"
  fill="currentColor"
  className="w-6 h-6"
>
  <path
    fillRule="evenodd"
    d="M4 5c0-1.1.9-2 2-2h2c.552 0 1 .448 1 1s-.448 1-1 1H6v12h12V5h-2c-.552 0-1-.448-1-1s.448-1 1-1h2c1.1 0 2 .9 2 2v12c0 1.1-.9 2-2 2H6c-1.1 0-2-.9-2-2V5zm14 4H6c-.552 0-1 .448-1 1s.448 1 1 1h12c.552 0 1-.448 1-1s-.448-1-1-1zM6 15h12c.552 0 1-.448 1-1s-.448-1-1-1H6c-.552 0-1 .448-1 1s.448 1 1 1z"
    clipRule="evenodd"
  />
  <path
    d="M8 19c-.552 0-1 .448-1 1s.448 1 1 1h8c.552 0 1-.448 1-1s-.448-1-1-1H8z"
  />
</svg>
